<svg xmlns="http://www.w3.org/2000/svg" version="1.1" xmlns:xlink="http://www.w3.org/1999/xlink" xmlns:svgjs="http://svgjs.dev/svgjs" width="1500" height="1687" viewBox="0 0 1500 1687"><g transform="matrix(1,0,0,1,0.0008643956454079671,0)"><svg viewBox="0 0 320 360" data-background-color="#ffffff" preserveAspectRatio="xMidYMid meet" height="1687" width="1500" xmlns="http://www.w3.org/2000/svg" xmlns:xlink="http://www.w3.org/1999/xlink"><g id="tight-bounds" transform="matrix(1,0,0,1,0.00018440440442191175,0)"><svg viewBox="0 0 320 360" height="360" width="320"><g><svg></svg></g><g><svg viewBox="0 0 320 360" height="360" width="320"><g><path d="M294.684 112.125c-8.775-10.699-25.381-16.201-43-22.006-7.56-2.498-15.357-5.097-22.985-8.235-7.695-3.173-15.256-7.257-22.613-11.172-14.952-8.033-30.41-16.336-46.105-16.336-15.661 0-31.119 8.303-46.071 16.336-7.358 3.949-14.952 8.033-22.648 11.205-7.594 3.139-15.425 5.704-22.985 8.236-17.618 5.839-34.224 11.341-42.999 22.006-11.712 14.277-11.442 35.439-11.172 57.817 0.034 3.375 0.068 6.717 0.067 10.024 0 3.308-0.034 6.649-0.101 10.024-0.27 22.411-0.54 43.54 11.172 57.851 8.775 10.666 25.381 16.167 42.966 22.006 7.56 2.498 15.357 5.097 23.019 8.235 7.695 3.173 15.256 7.223 22.579 11.172 14.986 8.067 30.444 16.37 46.105 16.37 15.695 0 31.153-8.303 46.105-16.336 7.358-3.949 14.918-8.033 22.614-11.172 7.594-3.139 15.357-5.704 22.884-8.202 17.72-5.873 34.326-11.374 43.101-22.039 11.712-14.277 11.442-35.439 11.171-57.817-0.034-3.409-0.101-6.75-0.101-10.058 0-3.308 0.034-6.649 0.101-9.991 0.371-22.479 0.641-43.641-11.104-57.918zM305.552 103.215c-15.728-19.171-45.801-23.727-71.486-34.326-22.985-9.45-46.375-28.588-74.051-28.587-27.676 0-51.066 19.137-74.052 28.587-25.719 10.598-55.758 15.155-71.486 34.326-17.078 20.791-14.311 50.121-14.311 76.785 0 26.63-2.768 55.994 14.277 76.785 15.728 19.171 45.801 23.727 71.487 34.326 22.985 9.484 46.375 28.588 74.051 28.587 27.676 0 51.066-19.103 74.051-28.587 25.719-10.598 55.758-15.155 71.486-34.326 17.045-20.791 14.277-50.121 14.277-76.785 0.068-26.664 2.835-55.994-14.243-76.785zM309.872 189.923c0.304 23.221 0.574 45.059-12.083 60.483-9.518 11.577-26.664 17.281-44.822 23.289-7.56 2.498-15.29 5.063-22.715 8.134-7.493 3.071-14.952 7.088-22.175 10.969-15.458 8.303-31.355 16.842-48.062 16.842-16.707 0-32.604-8.539-47.995-16.808-7.257-3.915-14.75-7.932-22.243-11.003-7.527-3.105-15.256-5.67-22.748-8.134-18.192-6.008-35.338-11.712-44.823-23.289-12.623-15.391-12.353-37.262-12.083-60.415 0.034-3.375 0.101-6.683 0.101-9.991 0-3.308-0.034-6.615-0.067-9.991-0.304-23.154-0.574-45.025 12.083-60.415 9.518-11.577 26.664-17.247 44.822-23.289 7.527-2.498 15.256-5.063 22.749-8.134 7.493-3.105 14.986-7.122 22.242-11.003 15.391-8.269 31.322-16.842 47.995-16.842 16.673 0 32.604 8.539 47.995 16.808 7.257 3.915 14.75 7.932 22.243 11.003 7.493 3.105 15.256 5.637 22.715 8.134 18.158 6.008 35.338 11.712 44.822 23.289 12.657 15.425 12.387 37.262 12.083 60.416-0.034 3.409-0.101 6.717-0.101 9.99 0 3.308 0.034 6.615 0.067 9.957z" fill="#ec4104" fill-rule="nonzero" stroke="none" stroke-width="1" stroke-linecap="butt" stroke-linejoin="miter" stroke-miterlimit="10" stroke-dasharray="" stroke-dashoffset="0" font-family="none" font-weight="none" font-size="none" text-anchor="none" style="mix-blend-mode: normal" data-fill-palette-color="tertiary"></path></g><g transform="matrix(1,0,0,1,96.64751958224542,108)"><svg viewBox="0 0 126.70496083550914 144" height="144" width="126.70496083550914"><g><svg viewBox="0 0 126.70496083550914 144" height="144" width="126.70496083550914"><g><svg viewBox="0 0 126.70496083550914 144" height="144" width="126.70496083550914"><g id="textblocktransform"><svg viewBox="0 0 126.70496083550914 144" height="144" width="126.70496083550914" id="textblock"><g><svg viewBox="0 0 126.70496083550914 144" height="144" width="126.70496083550914"><g transform="matrix(1,0,0,1,0,0)"><svg width="126.70496083550914" viewBox="-0.39 -36.72 32.910000000000004 37.4" height="144" data-palette-color="#ffffff"><path d="M-0.39-29.25L-0.39-29.25Q-0.39-29.69-0.34-30.55-0.29-31.42-0.29-31.74L-0.29-31.74Q-0.29-31.86-0.34-32.62-0.39-33.37-0.39-33.94L-0.39-33.94Q-0.39-36.52 0.1-36.52L0.1-36.52Q0.29-36.52 0.44-36.47L0.44-36.47Q5.54-36.47 15.56-36.6 25.59-36.72 30.57-36.72L30.57-36.72Q31.81-36.72 32.14-36.5 32.47-36.28 32.47-35.64L32.47-35.64 32.47-34.96Q32.47-33.69 32.5-31.21 32.52-28.74 32.52-27.44L32.52-27.44Q32.52-26.17 31.84-26.17L31.84-26.17Q30.47-26.17 27.76-26.22 25.05-26.27 23.68-26.27L23.68-26.27 23.68-0.1Q23.51 0.63 22.85 0.68L22.85 0.68Q22 0.68 20.36 0.66 18.73 0.63 17.87 0.63L17.87 0.63Q17.82 0.63 17.77 0.68L17.77 0.68Q16.7 0.68 14.76 0.66 12.82 0.63 11.87 0.63L11.87 0.63 10.4 0.63Q9.91 0.68 8.98 0.68L8.98 0.68 8.01-0.49Q8.01-4.2 8.25-11.52 8.5-18.85 8.5-22.56L8.5-22.56Q8.5-22.73 8.48-23.12 8.47-23.51 8.47-23.75 8.47-24 8.44-24.37 8.4-24.73 8.31-24.96 8.23-25.2 8.11-25.43 7.98-25.66 7.78-25.77 7.57-25.88 7.28-25.88L7.28-25.88 0.29-25.88Q-0.39-26.07-0.39-29.25Z" opacity="1" transform="matrix(1,0,0,1,0,0)" fill="#ffffff" class="wordmark-text-0" data-fill-palette-color="quaternary" id="text-0"></path></svg></g></svg></g></svg></g></svg></g></svg></g></svg></g></svg></g><defs></defs></svg><rect width="320" height="360" fill="none" stroke="none" visibility="hidden"></rect></g></svg></g></svg>